<svg class="row-start, logo" width="252" height="80" viewBox="0 0 252 80" fill="none" xmlns="http://www.w3.org/2000/svg"><path fill-rule="evenodd" clip-rule="evenodd" d="M60.412 73.495a21.336 21.336 0 0 1-6.05 1.154c-8.244.337-14.14-2.148-19.837-4.585-5.072-2.148-9.831-4.186-15.646-3.866a18.837 18.837 0 0 0-9.551 3.655 2.668 2.668 0 0 0-.333 3.683 2.664 2.664 0 0 0 3.67.459 13.53 13.53 0 0 1 6.591-2.485c4.467-.22 8.528 1.474 13.206 3.468 5.311 2.257 11.248 4.783 19.15 5.01.958.029 1.961 0 2.944-.036a26.283 26.283 0 0 0 7.586-1.433 2.668 2.668 0 0 0 1.788-2.347 2.649 2.649 0 0 0-.14-1.028 2.637 2.637 0 0 0-1.34-1.523 2.65 2.65 0 0 0-2.03-.13l-.008.004z" fill="#2673DD"></path><path fill-rule="evenodd" clip-rule="evenodd" d="M68.858 61.614c-2.514 1.746-7.594 4.69-13.4 4.93-7.399.304-12.227-1.812-17.348-4.033-5.409-2.343-10.964-4.792-19.394-4.442-7.8.304-14.4 4.734-17.632 7.362a2.729 2.729 0 0 0-.978 2.932c.102.352.272.682.5.97a2.742 2.742 0 0 0 1.88 1.015 2.722 2.722 0 0 0 2.043-.638c2.728-2.18 8.214-5.9 14.402-6.127 7.168-.292 11.93 1.779 16.966 3.984 4.934 2.16 10.014 4.365 17.32 4.52a26.7 26.7 0 0 0 2.48-.053c7.163-.273 13.275-3.81 16.288-5.884a2.734 2.734 0 0 0 1.14-1.767 2.745 2.745 0 0 0-3.285-3.176c-.351.077-.686.221-.982.427v-.02z" fill="#2673DD"></path><path fill-rule="evenodd" clip-rule="evenodd" d="M37.026.004A36.86 36.86 0 0 0 4.175 20.097 36.839 36.839 0 0 0 .256 39.714a36.847 36.847 0 0 0 6.903 18.773 33.304 33.304 0 0 1 4.93-1.917 31.743 31.743 0 0 1-6.77-17.538A31.722 31.722 0 0 1 23.61 8.146 31.674 31.674 0 0 1 42.24 5.64a31.694 31.694 0 0 1 16.775 8.48 31.734 31.734 0 0 1 9.027 16.486 31.714 31.714 0 0 1-1.888 18.703 31.743 31.743 0 0 1-12.146 14.343c.812 0 1.69 0 2.59-.057 2.88-.154 5.609-1.445 7.895-2.51 5.827-6.517 9.396-14.736 9.396-24.205 0-4.841-.953-9.635-2.806-14.107a36.839 36.839 0 0 0-7.983-11.98A36.84 36.84 0 0 0 37.026 0v.004z" fill="#EA5F00"></path><path fill-rule="evenodd" clip-rule="evenodd" d="M39.093 59.794l.077.029c3.2 1.311 6.29 2.574 9.884 3.248a29.043 29.043 0 0 0 16.852-29.53 29.038 29.038 0 0 0-40.514-23.499 29.058 29.058 0 0 0-13.368 11.85 29.039 29.039 0 0 0 3.147 33.854c.905-.154 1.817-.26 2.733-.317 9.214-.552 15.593 2.063 21.189 4.365zm2.087-19.56a6.903 6.903 0 0 0-1.835-1.267 20.085 20.085 0 0 0-2.388-.938 26.583 26.583 0 0 1-2.437-.922 10.436 10.436 0 0 1-4.284-2.993c-1.161-1.332-1.689-3.045-1.689-5.096a7.984 7.984 0 0 1 .812-3.541 7.154 7.154 0 0 1 2.1-2.518 9.311 9.311 0 0 1 2.976-1.486c1.127-.337 2.3-.5 3.476-.479h.065c1.69-.012 3.36.346 4.897 1.048a22.342 22.342 0 0 1 3.915 2.436l-2.907 4.114a14.348 14.348 0 0 0-2.603-1.511 9.69 9.69 0 0 0-3.383-.723 4.755 4.755 0 0 0-2.733.593 2.22 2.22 0 0 0-.901.84 2.217 2.217 0 0 0-.321 1.186 2.387 2.387 0 0 0 .406 1.422c.306.437.709.797 1.178 1.051.494.3 1.015.556 1.555.764.544.22 1.092.406 1.592.593 1.08.376 2.133.828 3.15 1.352a12.831 12.831 0 0 1 2.823 1.92 8.494 8.494 0 0 1 2.03 2.648 7.439 7.439 0 0 1 .699 3.59 8.044 8.044 0 0 1-.812 3.565 7.756 7.756 0 0 1-2.19 2.676 9.278 9.278 0 0 1-3.215 1.624 13.84 13.84 0 0 1-3.955.504 13.126 13.126 0 0 1-3.655-.568 16.085 16.085 0 0 1-2.997-1.271 14 14 0 0 1-2.25-1.487 8.93 8.93 0 0 1-1.38-1.157l2.976-4.178a12.588 12.588 0 0 0 3.456 2.294c1.29.626 2.7.962 4.134.982a5.514 5.514 0 0 0 3.102-.783c.412-.241.753-.587.987-1.003.236-.416.357-.887.35-1.365.02-.35-.038-.7-.167-1.027a2.436 2.436 0 0 0-.577-.865v-.024zM102.591 25.753a13.405 13.405 0 0 0-2.843-1.933 28.287 28.287 0 0 0-3.192-1.352l-1.624-.609a7.516 7.516 0 0 1-1.588-.763 4.22 4.22 0 0 1-1.17-1.06 2.352 2.352 0 0 1-.434-1.434c0-.42.115-.831.333-1.19.22-.356.533-.646.906-.836a4.823 4.823 0 0 1 2.753-.589 9.746 9.746 0 0 1 3.431.74 14.28 14.28 0 0 1 2.624 1.538l2.932-4.121a20.581 20.581 0 0 0-3.927-2.473 11.86 11.86 0 0 0-4.926-1.068h-.065a11.332 11.332 0 0 0-3.517.479 9.702 9.702 0 0 0-2.996 1.498 7.311 7.311 0 0 0-2.124 2.518 7.745 7.745 0 0 0-.849 3.557 7.31 7.31 0 0 0 1.71 5.133 10.664 10.664 0 0 0 4.32 3.013c.808.349 1.633.654 2.473.914.822.269 1.627.589 2.408.958.683.32 1.307.75 1.848 1.275.247.252.44.552.564.881.128.329.186.68.171 1.032.002.478-.121.948-.357 1.364a2.729 2.729 0 0 1-.995.999 5.563 5.563 0 0 1-3.127.784 10.079 10.079 0 0 1-4.166-.979 13.33 13.33 0 0 1-3.493-2.323l-2.996 4.191c.304.305.76.715 1.389 1.259a15.624 15.624 0 0 0 2.278 1.498 17.71 17.71 0 0 0 3.02 1.26c2.505.732 5.164.753 7.68.06a9.593 9.593 0 0 0 3.248-1.624 7.886 7.886 0 0 0 2.25-2.782 7.877 7.877 0 0 0 .792-3.488 7.883 7.883 0 0 0-.715-3.63 8.657 8.657 0 0 0-2.03-2.689l.004-.008zM176.151 24.665a9.09 9.09 0 0 0 .767-.87c.297-.36.545-.76.739-1.185a7.52 7.52 0 0 0 .557-1.665c.154-.773.228-1.56.219-2.347a7.777 7.777 0 0 0-.483-2.631 7.499 7.499 0 0 0-1.369-2.315 8.516 8.516 0 0 0-2.16-1.783 7.052 7.052 0 0 0-2.842-.934 20.44 20.44 0 0 0-2.283-.178 79.351 79.351 0 0 0-2.672-.037h-7.853v29.717h10.858c.999 0 1.799 0 2.437-.057 1.055-.1 2.09-.358 3.07-.764a7.775 7.775 0 0 0 2.53-1.689 8.518 8.518 0 0 0 1.729-2.607 8.86 8.86 0 0 0 .606-3.41c0-1.983-.407-3.554-1.174-4.732a6.967 6.967 0 0 0-2.676-2.521v.008zm-12.507-8.792h4.82c.658 0 1.238.07 1.714.126.884.096 1.726.43 2.436.967a2.512 2.512 0 0 1 .95 2.1c.021 1.148-.312 1.989-.93 2.476a5.136 5.136 0 0 1-2.456.926c-.568.08-1.141.114-1.714.101h-4.82v-6.696zm10.253 18.099c-.747.678-1.908 1.076-3.516 1.178-.475.032-1.105.069-1.885.06-.779-.008-1.563 0-2.367 0h-2.485v-7.682h2.473c.784 0 1.498 0 2.193-.025.6-.032 1.202-.032 1.803 0 1.563.081 2.765.439 3.622 1.08.424.318.762.737.983 1.219.224.474.328.998.3 1.522.017.499-.074.995-.268 1.454-.192.464-.485.88-.857 1.218l.004-.024zM129.578 24.527a11.463 11.463 0 0 0-2.436-3.951 10.486 10.486 0 0 0-3.586-2.473 11.12 11.12 0 0 0-4.324-.861 12.68 12.68 0 0 0-4.951.914 10.407 10.407 0 0 0-3.654 2.526 11.135 11.135 0 0 0-2.213 3.654 13.568 13.568 0 0 0-.719 4.467c-.019 1.637.296 3.26.926 4.771a11.58 11.58 0 0 0 2.526 3.7 11.199 11.199 0 0 0 3.699 2.395c1.377.553 2.849.83 4.333.813 1.248.02 2.495-.094 3.719-.341a14.34 14.34 0 0 0 2.843-.813c.782-.345 1.526-.77 2.221-1.267.65-.446 1.271-.893 1.856-1.352l-2.632-3.691c-.337.28-.747.573-1.181.877-.555.346-1.139.643-1.746.885-.724.265-1.466.474-2.222.626-.91.142-1.832.194-2.753.154a10.357 10.357 0 0 1-1.689-.26 7.318 7.318 0 0 1-1.71-.735 6.351 6.351 0 0 1-1.445-1.311 5.28 5.28 0 0 1-.971-1.962l-.057-.199h16.926l.044-1.287a13.098 13.098 0 0 0-.771-5.23l-.033-.049zm-16.381 2.104l.025-.18a3.39 3.39 0 0 1 .507-1.408l.138-.248a4.869 4.869 0 0 1 1.353-1.486 5.544 5.544 0 0 1 1.774-.849 6.965 6.965 0 0 1 2.083-.313c1.625.037 2.94.488 3.915 1.377.449.36.845.78 1.177 1.25.336.508.55 1.086.626 1.69l.028.183-11.626-.016zM149.557 19.512l-.337-.288a7.717 7.717 0 0 0-2.599-1.426 9.778 9.778 0 0 0-3.484-.564 10.101 10.101 0 0 0-4.199.869 9.667 9.667 0 0 0-3.382 2.363 11.046 11.046 0 0 0-2.258 3.748 13.445 13.445 0 0 0-.812 4.837 12.22 12.22 0 0 0 .812 4.466 11.415 11.415 0 0 0 2.262 3.59 11.01 11.01 0 0 0 3.382 2.465c1.32.583 2.749.878 4.191.865a10.679 10.679 0 0 0 3.488-.508 7.807 7.807 0 0 0 2.595-1.53l.337-.305v2.343h5.238V17.904h-5.234v1.608zm-.487 12.182a5.96 5.96 0 0 1-1.296 1.998 5.437 5.437 0 0 1-1.847 1.198c-.686.263-1.414.4-2.148.406a5.684 5.684 0 0 1-2.262-.406 5.72 5.72 0 0 1-1.909-1.28c-1.12-1.16-1.689-2.704-1.689-4.633a6.632 6.632 0 0 1 1.689-4.633 5.41 5.41 0 0 1 1.884-1.38 5.494 5.494 0 0 1 2.291-.463 5.584 5.584 0 0 1 2.168.434 5.067 5.067 0 0 1 1.848 1.247 5.898 5.898 0 0 1 1.291 2.055 7.95 7.95 0 0 1 0 5.482l-.02-.025zM198.631 19.512l-.337-.288a7.65 7.65 0 0 0-2.595-1.426 9.778 9.778 0 0 0-3.484-.564 10.104 10.104 0 0 0-4.199.869 9.747 9.747 0 0 0-3.382 2.363 11.238 11.238 0 0 0-2.258 3.748 13.445 13.445 0 0 0-.812 4.837 12.135 12.135 0 0 0 .812 4.466 11.376 11.376 0 0 0 2.258 3.59 11.145 11.145 0 0 0 3.382 2.465c1.322.584 2.754.879 4.199.865a10.71 10.71 0 0 0 3.488-.508 7.845 7.845 0 0 0 2.595-1.53l.337-.305v2.343h5.243V17.993h-5.243l-.004 1.519zm-.483 12.182a6.088 6.088 0 0 1-1.295 1.998 5.514 5.514 0 0 1-1.848 1.198 6.207 6.207 0 0 1-2.16.378 5.594 5.594 0 0 1-4.163-1.681c-1.124-1.166-1.693-2.705-1.693-4.638a6.618 6.618 0 0 1 1.693-4.63 5.428 5.428 0 0 1 1.88-1.384 5.432 5.432 0 0 1 2.291-.459 5.427 5.427 0 0 1 2.164.435 4.994 4.994 0 0 1 1.848 1.246 5.87 5.87 0 0 1 1.299 2.03 8.054 8.054 0 0 1 0 5.487l-.016.02zM242.085 27.719l9.502-10.428h-6.903l-7.866 8.556V10.416h-5.238v30.02h5.251v-6.81l1.738-1.952 6.846 8.763h6.497l-9.827-12.718zM226.849 22.492a7.749 7.749 0 0 0-2.749-3.577 8.178 8.178 0 0 0-5.072-1.519 10.988 10.988 0 0 0-3.248.504 7.31 7.31 0 0 0-2.632 1.385v-1.26h-5.327v22.412h5.315V28.433c.028-.772.102-1.542.219-2.306.1-.7.322-1.378.654-2.002a3.798 3.798 0 0 1 1.413-1.352 4.647 4.647 0 0 1 2.335-.601 3.956 3.956 0 0 1 2.843.893 4.438 4.438 0 0 1 1.466 2.502c.137.642.227 1.293.268 1.949.052.771.085 1.904.085 3.398v9.531h5.202V29.627c0-1.47-.045-2.745-.138-3.833a11.992 11.992 0 0 0-.634-3.302z" fill="#EA5F00"></path><path d="M97.876 66.202H90.53l-1.397 3.846h-4.466l7.573-18.68h3.886l7.61 18.68h-4.467l-1.393-3.846zm-6.217-3.114h5.088l-2.558-6.989-2.53 6.989zM119.829 63.214h-3.338v6.834h-3.992v-18.68h7.346c2.401 0 4.254.493 5.559 1.478 1.305.986 1.957 2.375 1.957 4.167a5.357 5.357 0 0 1-.905 3.183 6.035 6.035 0 0 1-2.741 2.03l4.397 7.63v.18h-4.466l-3.817-6.822zm-3.338-3.286h3.382c1.052 0 1.864-.077 2.437-.568a2.66 2.66 0 0 0 .674-.926 2.53 2.53 0 0 0 .191-1.1 2.568 2.568 0 0 0-.179-1.117 2.779 2.779 0 0 0-.638-.963c-.544-.503-1.38-.67-2.505-.67h-3.362v5.344z" fill="#7A7A7A"></path><path fill-rule="evenodd" clip-rule="evenodd" d="M205.794 60.03a8.546 8.546 0 0 0-.475 2.948 8.58 8.58 0 0 0 .475 2.924 7.11 7.11 0 0 0 1.3 2.262 5.938 5.938 0 0 0 1.949 1.47 5.81 5.81 0 0 0 2.457.523 4.436 4.436 0 0 0 2.03-.406 4.87 4.87 0 0 0 1.697-1.287v1.56h3.619V56.18h-3.619v1.312a4.844 4.844 0 0 0-1.697-1.291 4.436 4.436 0 0 0-2.03-.406 5.815 5.815 0 0 0-2.457.511 5.718 5.718 0 0 0-1.949 1.45 7.08 7.08 0 0 0-1.3 2.274zm6.217 6.761c1.828 0 3.314-1.697 3.314-3.789 0-2.09-1.486-3.784-3.314-3.784-1.827 0-3.313 1.693-3.313 3.784 0 2.092 1.482 3.79 3.313 3.79zM130.744 67.274a4.71 4.71 0 0 0 1.648 2.201c.813.626 2.437.934 3.655.934a6.52 6.52 0 0 0 1.937-.309 4.372 4.372 0 0 0 1.576-.848v.771h3.796v-13.75h-3.796v7.217c-.017.473-.061.945-.134 1.413a3.703 3.703 0 0 1-.407 1.218 2.26 2.26 0 0 1-.844.812 2.719 2.719 0 0 1-1.393.374 2.341 2.341 0 0 1-1.693-.553c-.456-.399-.765-.94-.877-1.535a8.222 8.222 0 0 1-.159-1.19 25.642 25.642 0 0 1-.053-1.948v-5.807h-3.703v6.623c0 .901.028 1.685.081 2.347.028.69.151 1.374.366 2.03z" fill="#7A7A7A"></path><path d="M155.181 59.652c-.48-.065-.964-.1-1.449-.105-1.531 0-2.53.475-3.005 1.425v9.076h-4.037V56.176h3.813l.11 1.653a3.806 3.806 0 0 1 3.366-1.909c.426-.004.849.052 1.259.167l-.057 3.565zM177.097 70.011h-3.984v-18.68h3.984v18.68z" fill="#7A7A7A"></path><path fill-rule="evenodd" clip-rule="evenodd" d="M200.446 59.965c.193-.173.376-.356.548-.548a3.44 3.44 0 0 0 .524-.744c.178-.33.315-.68.406-1.043.11-.484.162-.978.155-1.474a4.427 4.427 0 0 0-.345-1.653 4.593 4.593 0 0 0-.971-1.454 5.923 5.923 0 0 0-1.539-1.12 5.461 5.461 0 0 0-2.03-.59c-.54-.06-1.081-.1-1.625-.113a87.756 87.756 0 0 0-1.9-.02h-5.279v18.68H195.793c.71 0 1.279 0 1.73-.037a8.436 8.436 0 0 0 2.18-.48 5.59 5.59 0 0 0 1.799-1.06c.505-.459.919-1.01 1.218-1.624a4.97 4.97 0 0 0 .451-2.144 4.82 4.82 0 0 0-.836-2.972 4.76 4.76 0 0 0-1.889-1.604zm-8.588-5.523h3.123c.462 0 .877.04 1.218.077a3.768 3.768 0 0 1 1.742.61c.218.15.397.35.52.584.116.227.17.48.158.735a1.74 1.74 0 0 1-.662 1.551 3.911 3.911 0 0 1-1.75.585 8.131 8.131 0 0 1-1.218.065h-3.131v-4.207zm6.984 11.37c-.532.406-1.356.678-2.501.74-.337.02-.784.044-1.34.04h-3.143v-4.828h3.013a12.63 12.63 0 0 1 1.279 0 5.128 5.128 0 0 1 2.579.678c.293.188.534.448.698.755.158.294.232.625.215.959.013.316-.054.63-.195.913a2.208 2.208 0 0 1-.605.76v-.017zM234.829 59.043a4.73 4.73 0 0 0-1.653-2.2c-.812-.626-2.437-.935-3.655-.93a6.319 6.319 0 0 0-1.941.308 4.228 4.228 0 0 0-1.571.849v-.776h-3.801v13.742h3.801V62.82c.013-.472.056-.943.13-1.41.065-.425.202-.837.406-1.218.207-.338.498-.617.844-.812a2.739 2.739 0 0 1 1.397-.37 2.313 2.313 0 0 1 1.689.512c.454.4.762.938.878 1.531.081.394.134.793.158 1.194.032.471.053 1.028.053 1.945v5.836h3.723V63.42c0-.902-.028-1.681-.081-2.347a7.55 7.55 0 0 0-.377-2.03zM245.468 61.715l6.245-6.838h-4.528l-5.161 5.612v-9.145h-3.711V70.08h3.711v-4.467l1.141-1.279 4.487 5.746h4.276l-6.46-8.365zM156.94 60.03a8.524 8.524 0 0 0-.476 2.948 8.58 8.58 0 0 0 .476 2.924 7.09 7.09 0 0 0 1.299 2.262 5.948 5.948 0 0 0 1.949 1.47c.771.351 1.61.53 2.457.523a4.464 4.464 0 0 0 2.03-.406c.653-.3 1.233-.739 1.698-1.287v1.56h3.614V56.18h-3.614v1.312a4.922 4.922 0 0 0-1.698-1.291 4.465 4.465 0 0 0-2.03-.406 5.798 5.798 0 0 0-2.457.511 5.717 5.717 0 0 0-1.949 1.45 7.077 7.077 0 0 0-1.299 2.274zm6.217 6.761c1.831 0 3.313-1.693 3.313-3.789 0-2.095-1.482-3.784-3.313-3.784-1.832 0-3.314 1.693-3.314 3.784 0 2.092 1.482 3.79 3.314 3.79z" fill="#7A7A7A"></path></svg>